<svg xmlns="http://www.w3.org/2000/svg" width="1240" height="1240"><path d="M611.536 241.09c-13.372 1.826-15.084 1.881-16.083.515-1-1.368-1.664-1.354-6.315.134-3.947 1.262-5.052 2.035-4.592 3.211.334.853 2.856 8.975 5.606 18.05 9.563 31.562 15.841 61.459 18.296 87.126l1.418 14.835-60.433 104.031C516.195 526.208 489 573.242 489 573.511c0 .269 56.25.489 125 .489s125-.204 125-.452c0-.249-26.55-46.167-59-102.04l-59-101.586v-6.001c0-7.961-1.606-22.611-4.138-37.738-1.134-6.774-1.904-12.459-1.712-12.633.193-.174 4.229-2.834 8.969-5.911C643.163 295.278 661.334 288 673.149 288c6.579 0 13.145 2.689 24.458 10.018 9.822 6.363 18.235 9.991 23.118 9.97 8.855-.038 29.534-9.594 49.064-22.674 6.991-4.681 12.036-8.286 11.211-8.009-.825.277-6.824 2.599-13.331 5.161-12.352 4.862-25.107 8.534-29.647 8.534-9.794 0-19.645-6.992-29.335-20.82-10.792-15.401-22.977-23.835-40.711-28.178-12.93-3.167-37.069-3.557-56.44-.912M225 572v50h189V522h-38v11.451c0 14.343-1.21 20.135-5.225 25.006-9.688 11.753-27.31 9.174-33.873-4.957-1.522-3.277-1.862-6.485-1.88-17.75L335 522h-30.782l-.401 14.75c-.434 15.931-1.099 18.338-6.478 23.447-8.522 8.095-21.186 7.435-29.043-1.513-4.369-4.976-5.284-9.114-5.29-23.934L263 522h-38v50m601 0v50h189V522h-38l-.006 12.75c-.006 14.82-.921 18.958-5.29 23.934-7.857 8.948-20.521 9.608-29.043 1.513-5.379-5.109-6.044-7.516-6.478-23.447l-.401-14.75H905l-.022 13.75c-.018 11.265-.358 14.473-1.88 17.75-6.563 14.131-24.185 16.71-33.873 4.957-4.015-4.871-5.225-10.663-5.225-25.006V522h-38v50m-306 28.431c0 .237-1.575 17.593-3.5 38.569-1.925 20.976-3.5 38.332-3.5 38.569 0 .237 45.45.431 101 .431s101-.194 101-.431-1.575-17.593-3.5-38.569c-1.925-20.976-3.5-38.332-3.5-38.569 0-.237-42.3-.431-94-.431s-94 .194-94 .431M249.99 648.75c-.005 2.612-3.364 73.564-7.465 157.67-5.699 116.875-7.759 153.111-8.74 153.734-.707.449-2.154.822-3.216.831-3.825.03-35.434 5.216-52.569 8.624-28.507 5.671-50.085 12.121-62.267 18.614-5.982 3.188-11.733 8.733-11.733 11.312 0 1.285 63.446 1.465 516 1.465s516-.18 516-1.465c0-2.577-5.75-8.123-11.715-11.299-12.552-6.683-32.654-12.69-62.285-18.611-17.059-3.409-48.702-8.61-52.569-8.64-1.062-.009-2.507-.381-3.21-.827-.975-.619-3.056-37.225-8.74-153.735-4.103-84.108-7.465-155.061-7.471-157.673L990 644H852.038l-.445 2.25c-.245 1.237-3.42 65.025-7.056 141.75-3.635 76.725-6.887 143.491-7.226 148.369l-.616 8.869-10.597-.602c-5.829-.331-16.11-.892-22.848-1.247l-12.25-.646V808H437.014l-.257 67.75-.257 67.75-16.363.803c-9 .442-16.537.63-16.749.419-.211-.212-3.569-66.948-7.461-148.304-3.892-81.355-7.277-148.931-7.521-150.168l-.444-2.25H250l-.01 4.75M437 746v29h354v-58H732.251l-.438 8.342c-.351 6.691-.957 9.228-3.062 12.82-5.972 10.191-18.842 14.186-29.251 9.081-8.238-4.04-12.306-10.912-13.181-22.268l-.615-7.975h-48.447l-.455 7.75c-.509 8.66-2.464 13.705-7.052 18.19-4.446 4.347-9.485 6.392-15.75 6.392-13.884 0-23-10.508-23-26.514V717h-48.704l-.615 7.987c-.339 4.393-1.357 9.456-2.263 11.25-5.111 10.13-15.604 15.158-26 12.461C502.265 745.805 496 737.031 496 724.304V717h-59v29" fill="undefined" fill-rule="evenodd"/></svg>